<svg viewBox="0 0 152 111" xmlns="http://www.w3.org/2000/svg" xmlns:xlink="http://www.w3.org/1999/xlink" fill="none" customFrame="#000000">
	<rect id="state=M" width="152.000000" height="111.000000" x="0.000000" y="0.000000" />
	<rect id="Rectangle" width="111.000000" height="111.000000" x="0.000000" y="0.000000" fill="rgb(31,30,30)" />
	<path id="LENNI" d="M53.3844 55.1225L53.3844 38.178C55.5523 38.178 62.2304 39.0003 62.7288 48.6686L62.7288 55.1225L66.2672 55.1225L66.2672 37.7544L62.7288 37.7544L62.7288 45.5538C61.6573 40.919 58.2684 37.7544 53.3844 37.7544L49.846 37.7544L49.846 55.1225L53.3844 55.1225ZM73.5381 55.1225L73.5381 38.178C75.706 38.178 82.3841 39.0003 82.8825 48.6686L82.8825 55.1225L86.4209 55.1225L86.4209 37.7544L82.8825 37.7544L82.8825 45.5538C81.811 40.919 78.4221 37.7544 73.5381 37.7544L69.9997 37.7544L69.9997 55.1225L73.5381 55.1225ZM20.1102 54.6989L30.1772 54.6989L30.1772 55.1225L16.5469 55.1225L16.5469 37.7544L20.0853 37.7544L20.0853 37.7793L20.1102 37.7793L20.1102 54.6989ZM33.1721 55.1225L46.8523 55.1225L46.8523 54.6989L36.7105 54.6989L36.7105 46.2765L44.6346 46.2765L44.6346 45.828L36.7105 45.828L36.7105 38.178L46.8523 38.178L46.8523 37.7544L33.1721 37.7544L33.1721 55.1225ZM93.6918 55.1225L90.1534 55.1225L90.1534 37.7544L93.6918 37.7544L93.6918 55.1225Z" fill="rgb(255,255,255)" fill-rule="evenodd" />
	<rect id="Rectangle" width="91.000000" height="32.000000" x="61.000000" y="69.000000" fill="rgb(188.062,51.332,36.0453)" />
	<path id="ART" d="M100.16 93.6329L100.16 77.8437L103.377 77.8437L103.377 83.0992C103.875 80.1543 104.894 77.5039 108.428 77.5039C111.781 77.5039 114.658 78.7498 114.658 82.6915C114.658 85.8402 112.936 87.2447 110.671 87.8337L114.567 93.6102L110.897 93.6102L107.205 88.1735L103.377 88.1735L103.377 93.6329L100.16 93.6329ZM82.248 93.6329L82.6558 93.6329L84.8758 87.1768L91.3319 87.1768L93.8464 93.6329L97.2217 93.6329L91.1054 77.8437L87.6848 77.8437L82.248 93.6329ZM122.39 78.2288L122.413 93.6329L125.63 93.6329L125.63 78.2288L132.131 78.2288L132.131 77.8437L115.889 77.8437L115.889 78.2288L122.39 78.2288ZM107.862 77.9117C106.457 78.0249 104.872 78.931 104.26 81.151C103.286 84.6623 103.377 87.7884 103.377 87.7884L106.661 87.7884C108.836 87.7884 111.373 87.4712 111.373 82.6915C111.373 79.7466 111.237 77.5945 107.862 77.9117ZM87.9113 78.3421L91.196 86.7917L85.0117 86.7917L87.9113 78.3421Z" fill="rgb(255,255,255)" fill-rule="evenodd" />
</svg>
